<?xml version="1.0" encoding="UTF-8" standalone="no"?>
<!-- Generator: visioncortex VTracer -->

<svg
   id="svg"
   version="1.1"
   style="display:block"
   viewBox="0 0 2350 646"
   width="2350"
   height="646"
   xmlns="http://www.w3.org/2000/svg"
   xmlns:svg="http://www.w3.org/2000/svg">
  <defs
     id="defs12" />
  <path
     d="m 232,461 5,5 3,3 v 2 l 4,2 9,8 18,12 21,11 11,8 10,9 9,12 4,10 -5,-2 -15,-8 -24,-10 -19,-8 -11,-6 -13,-13 -7,-14 -2,-9 1,-10 z"
     style="fill:#c8ab37;fill-opacity:1"
     id="path1" />
  <path
     d="m 2261,430 h 87 v 96 h -87 z"
     style="fill:#c8ab37;fill-opacity:1"
     id="path2" />
  <path
     d="m 1885,227 h 81 v 299 h -81 z"
     style="fill:#c8ab37;fill-opacity:1"
     id="path3" />
  <path
     d="m 1373,219 h 17 l 18,2 15,4 12,5 11,7 10,9 8,10 8,15 6,18 4,19 3,29 v 189 h -80 l -1,-173 -2,-22 -4,-16 -5,-9 -5,-6 -12,-6 -9,-2 h -16 l -20,3 -19,5 -6,1 v 225 h -81 V 227 h 80 l 1,15 25,-12 21,-7 13,-3 z"
     style="fill:#c8ab37;fill-opacity:1"
     id="path4" />
  <path
     d="m 1027,219 h 21 l 21,2 19,4 19,7 14,8 11,9 8,8 9,13 8,16 6,19 4,24 1,14 v 15 l -5,46 -1,6 H 986 l 2,17 3.99997,12 7,10 11.00003,7 13,4 17,2 h 19 l 50,-2 43,-3 h 5 l 1,19 v 41 l -33,7 -39,6 -31,3 h -40 L 992.99997,530 975,525 l -19,-9 -13,-10 -8,-8 -9,-13 -8,-16 -6,-18 -5,-25 -2,-20 v -49 l 3,-26 5,-22 5,-15 9,-19 9,-13 9,-10 11,-10 13,-8 13,-6 15.99997,-5 L 1015,220 Z m 2,66 -12,2 -12,5 -7.00003,6 -7,11 -3.99997,14 -2,16 v 10 h 104 l -1,-20 -3,-15 -4,-10 -7,-9 -10,-6 -10,-3 -8,-1 z"
     style="fill:#c8ab37;fill-opacity:1"
     id="path5" />
  <path
     d="m 2052,143 h 80 v 84 h 74 v 68 h -74 l 1,144 2,10 4,7 5,3 4,1 h 55 l 3,49 v 15 l -5,2 -35,6 -8,1 h -32 l -19,-3 -15,-5 -12,-7 -11,-11 -6,-10 -5,-13 -5,-25 -1,-11 V 295 h -36 v -68 l 35,-1 z"
     style="fill:#c8ab37;fill-opacity:1"
     id="path6" />
  <path
     d="m 163,123 h 21 l 16,5 11,7 11,11 7,12 4,13 1,7 v 9 l -2,12 -5,12 -7,11 -7,7 -14,9 -12,4 -6,1 h -15 l -15,-4 -10,-5 -10,-8 -9,-11 -6,-13 -2,-8 -1,-13 2,-14 5,-12 6,-10 10,-10 14,-8 z m 5,22 -10,3 -9,6 -8,9 -4,9 -1,4 v 13 l 3,10 7,10 9,7 10,4 h 17 l 12,-5 9,-8 5,-8 3,-10 v -13 l -4,-11 -6,-8 -8,-7 -10,-4 -4,-1 z"
     style="fill:#c8ab37;fill-opacity:1"
     id="path7" />
  <path
     d="m 2261,119 h 87 v 16 l -7,222 -1,19 h -71 l -3,-87 -5,-159 z"
     style="fill:#c8ab37;fill-opacity:1"
     id="path8" />
  <path
     d="m 713,111 32,1 39,4 46,7 21,4 1,1 -1,16 -5,49 -15,-1 -63,-6 -33,-2 h -16 l -18,2 -16,5 -10,6 -8,9 -4,10 -1,6 v 9 l 2,9 5,8 9,8 16,8 20,8 60,20 26,11 18,10 12,9 13,13 8,13 5,13 4,20 1,14 v 15 l -2,20 -4,18 -6,16 -7,13 -9,12 -9,10 -16,12 -19,10 -21,7 -21,4 -9,1 h -39 l -38,-4 -43,-7 -34,-7 1,-13 7,-51 15,1 57,6 26,2 h 40 l 17,-4 12,-6 8,-7 6,-10 4,-13 v -21 l -4,-10 -7,-8 -11,-7 -15,-7 -27,-9 -33,-10 -28,-11 -20,-10 -12,-8 -11,-9 -9,-9 -10,-15 -6,-15 -4,-18 -1,-9 v -23 l 3,-22 5,-17 8,-16 6,-9 9,-10 7,-7 15,-10 17,-8 20,-6 17,-3 z"
     style="fill:#c8ab37;fill-opacity:1"
     id="path9" />
  <path
     d="m 1885,107 h 81 v 81 h -81 z"
     style="fill:#c8ab37;fill-opacity:1"
     id="path10" />
  <path
     d="m 1731,107 h 80 v 419 h -80 v -12 l -19,8 -26,8 -16,3 h -29 l -19,-3 -17,-5 -14,-7 -13,-10 -9,-10 -7,-11 -8,-17 -6,-21 -4,-25 -2,-26 v -42 l 2,-23 4,-23 6,-20 7,-16 10,-16 11,-12 12,-9 17,-9 16,-5 17,-3 11,-1 h 19 l 33,4 22,4 2,1 z m -66,182 -10,3 -10,6 -7,8 -8,16 -5,21 -2,23 v 20 l 2,27 4,18 8,16 7,7 10,5 8,2 h 27 l 25,-4 16,-4 1,-1 V 295 l -16,-3 -29,-3 z"
     style="fill:#c8ab37;fill-opacity:1"
     id="path11" />
  <path
     d="M 96.999997,0 H 107 l 15,3 20,8 29,14 22,13 16,11 12,9 13,11 7,6 7,-1 13,-3 h 19 l 17,4 16,7 15,10 14,12 11,14 12,19 14,26 17,37 13,32 13,35 5,14 -1,2 -57,-21 -41,-15 v 21 l -2,12 25,9 20,10 12,9 7,8 4,9 v 12 l -4,9 -3,5 8,8 9,13 8,15 7,21 3,17 v 35 l -4,22 -5,17 -10,24 -4,16 -3,27 -1,27 -5,-2 -18,-13 -8,-6 -2,26 -4,31 -3,8 -7,3 -7,-1 -5,-6 -4,-10 -10,-14 -12,-14 -9,-9 -11,-9 -14,-10 -16,-9 -19,-8 -18,-8 -15,-9 -11,-9 -11,-11 -10,-15 -5,-10 -2,-14 v -11 l 1,-7 h -15 l -8,-3 -5,-6 -2,-8 v -21 l 4,-20 9,-26 2,-6 -6,-2 -11,-8 -9,-7 -2,9 -23,73 -6.000003,19 -2,1 L 84,434 70,414 55,391 42,370 30,349 18,326 9.9999997,309 l -7,-21 -2,-8 L 0,271 v -20 l 2.9999997,-18 5,-15 L 15,205 l 8,-10 9,-9 7,-5 h 2 L 39,171 38,160 V 110 L 41,83 47,51 51,36 58,22 67,12 75,6 90.999997,1 Z m -1,23 L 86,26 l -6,4 -6,10 -4,11 -6,30 -3,24 -1,13 v 33 l 2,22 2,9 3,14 5,21 7,21 11,24 11,19 10,14 9,11 11,12 10,11 8,7 11,8 10,4 h 16 l 19,-5 33,-13 19,-10 19,-12 10,-8 5,-4 9,-12 5,-15 1,-15 -2,-19 -5,-23 -9,-27 -13,-27 -11,-18 -12,-17 -12,-14 -8,-8 -7,-8 L 215,82 201,71 184,59 162,46 146,38 129,30 113,24 109,23 Z M 261,94 l 1,4.000004 8,8.999996 13,18 11,18 11,21 11,28 8,25 2,5 52,19 8,3 3,-1 L 375,209 360,176 346,149 334,130 323,117 307,105 291,97.000004 281,94 Z m -217,112 -7,7 -8,13 -4,11 -2,10 v 28 l 4,15 10,24 14,27 17,28 15,24 5,7 h 2 l 21,-66 -1,-4 -8,-9 -13,-18 -14,-23 -12,-23 -9,-23 -7,-24 -1,-4 z m 271,95 -11,13 -14,11 -21,13 -22,12 -31,12 -20,6 -18,3 -9,23 -5,18 -2,13 v 8 l 1,1 16,-1 28,-5 29,-8 23,-8 21,-9 16,-8 18,-10 12,-8 13,-10 10,-9 6,-5 7,-8 8,-10 2,-5 -5,-6 -14,-9 -21,-9 -15,-5 z m 70,51 -12,13 -6,7 -8,7 -16,13 -20,13 -18,10 -25,12 -29,11 -27,8 -26,6 -19,3 1,5 8,16 10,18 11,13 10,8 13,8 15,7 20,8 17,9 17,12 13,11 9,8 7,8 9,11 2,-1 3,-21 3,-13 1,-5 12,-48 1,7 2,48 15,7 h 3 l -1,-14 v -19 l 3,-19 5,-15 7,-19 6,-25 2,-13 1,-14 v -13 l -2,-20 -5,-22 -6,-16 -5,-10 z"
     style="fill:#c8ab37;fill-opacity:1"
     id="path12" />
</svg>
